# xmcd
#
# Track frame offsets:
#	150
#	18603
#	33955
#	51154
#	68560
#	83965
#	101440
#	121401
#	132734
#	157282
#	178654
#	198591
#	211324
#	231093
#	245258
#	261240
#	275894
#	293445
#	312124
#
# Disc length: 4334 seconds
#
# Revision: 1
# Processed by: cddbd v1.5.1PL0 Copyright (c) Steve Scherf et al.
# Submitted via: audiograbber 1.83.01
#
DISCID=1b10ec13
DTITLE=сборник - Потанцуем? 50-50. (2001)
DYEAR=1900
DGENRE=
TTITLE0=Тату. - Покажи мне любовь.
TTITLE1=A-Teens. - Rocking.
TTITLE2=Руки Вверх. - Он не я. (Karl Club Rmx)
TTITLE3=Stark. - You.
TTITLE4=Hi-Fi. - Почтовый поезд.
TTITLE5=Miss A. - SOS.
TTITLE6=Revolvers. - Ветер. (Rmx)
TTITLE7=Shaft. - Kiki Ricki Boom.
TTITLE8=Оскар. - Ветер. (Rmx)
TTITLE9=Francesca. - St.Matrin Last Night.
TTITLE10=Игорек. - My Love Natasha. (XXXL Mix)
TTITLE11=Natalia Brown. - The Faith.
TTITLE12=Ариана. - Under The Spanish Sky.
TTITLE13=Milk INC. - Walk On Water.
TTITLE14=Турбомода. - Только ты. (Karl Speed Mix)
TTITLE15=John The Whistler. - Tell Me.
TTITLE16=DVD. - Белый снег. (Club Mix)
TTITLE17=Ricky Martin and Christina Aguilera. - Nobody.
TTITLE18=Алсу. - Before You Love Me.
EXTD=
EXTT0=
EXTT1=
EXTT2=
EXTT3=
EXTT4=
EXTT5=
EXTT6=
EXTT7=
EXTT8=
EXTT9=
EXTT10=
EXTT11=
EXTT12=
EXTT13=
EXTT14=
EXTT15=
EXTT16=
EXTT17=
EXTT18=
PLAYORDER=
